<mxfile host="Electron" agent="Mozilla/5.0 (Macintosh; Intel Mac OS X 10_15_7) AppleWebKit/537.36 (KHTML, like Gecko) draw.io/28.0.4 Chrome/138.0.7204.97 Electron/37.2.1 Safari/537.36" version="28.0.4" pages="2">
  <diagram id="08cfe2f096e2409c" name="Admission Control Graph Td">
    <mxGraphModel dx="706" dy="604" grid="1" gridSize="10" guides="1" tooltips="1" connect="1" arrows="1" fold="1" page="1" pageScale="1" pageWidth="827" pageHeight="1169" math="0" shadow="0">
      <root>
        <mxCell id="0" />
        <mxCell id="1" parent="0" />
        <UserObject label="" mermaidData="{&quot;data&quot;:&quot;graph TD\n    A[API Request] --&gt; B{Admission Control Pipeline}\n    B --&gt; C[OpenShift Built-in Controllers]\n    B --&gt; D[KubeVirt Webhooks]\n    B --&gt; E[Kyverno Policy Engine]\n    \n    C --&gt; F[Mutating Admission]\n    D --&gt; F\n    E --&gt; F\n    \n    F --&gt; G[Validating Admission]\n    C --&gt; G\n    D --&gt; G\n    E --&gt; G\n    \n    G --&gt; H[etcd Storage]\n    G --&gt; I[Denied Request]&quot;}" id="07c19fffd1e14767">
          <mxCell style="shape=image;noLabel=1;verticalAlign=top;imageAspect=1;image=data:image/svg+xml,PHN2ZyB3aWR0aD0iMjAwIiBoZWlnaHQ9IjIwMCIgeG1sbnM9Imh0dHA6Ly93d3cudzMub3JnLzIwMDAvc3ZnIj48cmVjdCB3aWR0aD0iMjAwIiBoZWlnaHQ9IjIwMCIgZmlsbD0iI2Y5ZjlmOSIgc3Ryb2tlPSIjY2NjIi8+PHRleHQgeD0iMTAwIiB5PSIxMDAiIHRleHQtYW5jaG9yPSJtaWRkbGUiIGZvbnQtZmFtaWx5PSJBcmlhbCIgZm9udC1zaXplPSIxNCIgZmlsbD0iIzMzMyI+TWVybWFpZCBEaWFncmFtPC90ZXh0Pjwvc3ZnPg==;" vertex="1" parent="1">
            <mxGeometry x="260" y="130" width="200" height="200" as="geometry" />
          </mxCell>
        </UserObject>
      </root>
    </mxGraphModel>
  </diagram>
  <diagram id="3a4606584ebb4802" name="Admission Control Sequencediagram">
    <mxGraphModel dx="706" dy="604" grid="1" gridSize="10" guides="1" tooltips="1" connect="1" arrows="1" fold="1" page="1" pageScale="1" pageWidth="827" pageHeight="1169" math="0" shadow="0">
      <root>
        <mxCell id="0" />
        <mxCell id="1" parent="0" />
        <UserObject label="" mermaidData="{&quot;data&quot;:&quot;sequenceDiagram\n    participant User\n    participant API as OpenShift API\n    participant OSA as OpenShift Admission\n    participant KVA as KubeVirt Admission\n    participant KYV as Kyverno\n    participant etcd\n\n    User-&gt;&gt;API: Create VirtualMachine\n    API-&gt;&gt;OSA: Mutating Admission\n    OSA-&gt;&gt;KVA: KubeVirt Mutations\n    KVA-&gt;&gt;KYV: Kyverno Mutations\n    KYV-&gt;&gt;OSA: Validating Admission\n    OSA-&gt;&gt;KVA: KubeVirt Validation\n    KVA-&gt;&gt;KYV: Kyverno Validation\n    KYV-&gt;&gt;etcd: Store Resource\n    etcd-&gt;&gt;User: Success Response&quot;}" id="40798c0909924ebb">
          <mxCell style="shape=image;noLabel=1;verticalAlign=top;imageAspect=1;image=data:image/svg+xml,PHN2ZyB3aWR0aD0iMjAwIiBoZWlnaHQ9IjIwMCIgeG1sbnM9Imh0dHA6Ly93d3cudzMub3JnLzIwMDAvc3ZnIj48cmVjdCB3aWR0aD0iMjAwIiBoZWlnaHQ9IjIwMCIgZmlsbD0iI2Y5ZjlmOSIgc3Ryb2tlPSIjY2NjIi8+PHRleHQgeD0iMTAwIiB5PSIxMDAiIHRleHQtYW5jaG9yPSJtaWRkbGUiIGZvbnQtZmFtaWx5PSJBcmlhbCIgZm9udC1zaXplPSIxNCIgZmlsbD0iIzMzMyI+TWVybWFpZCBEaWFncmFtPC90ZXh0Pjwvc3ZnPg==;" vertex="1" parent="1">
            <mxGeometry x="260" y="130" width="200" height="200" as="geometry" />
          </mxCell>
        </UserObject>
      </root>
    </mxGraphModel>
  </diagram>
</mxfile>